<svg width="1636" height="398" viewBox="0 0 1636 398" fill="none" xmlns="http://www.w3.org/2000/svg">
<path d="M148.409 191.589C149.505 191.59 150.394 192.492 150.394 193.606V234.548C150.394 234.902 150.302 235.25 150.128 235.556L110.25 305.734C109.486 307.079 107.575 307.078 106.812 305.732L87.3585 271.403C87.0038 270.778 86.3469 270.392 85.6362 270.393L46.6497 270.44C45.1206 270.442 44.1638 268.761 44.9284 267.415L87.4428 192.598C87.7974 191.974 88.4522 191.589 89.1612 191.589H148.409Z" fill="#000201"/>
<path d="M217.581 191.589C218.29 191.589 218.945 191.974 219.299 192.598L261.814 267.415C262.578 268.761 261.621 270.442 260.092 270.44L221.106 270.393C220.395 270.392 219.738 270.778 219.384 271.403L199.931 305.732C199.168 307.078 197.256 307.079 196.492 305.734L156.615 235.556C156.44 235.25 156.348 234.902 156.348 234.548V193.606C156.348 192.492 157.237 191.59 158.333 191.589H217.581Z" fill="#000201"/>
<path d="M86.9359 114.952C87.6449 114.952 88.2998 115.337 88.6544 115.96L109.25 152.203C109.605 152.827 109.605 153.597 109.25 154.221L88.5884 190.581C88.2339 191.205 87.5789 191.589 86.87 191.589H1.98841C0.459485 191.589 -0.495727 189.907 0.269997 188.562L19.8035 154.281C20.1596 153.656 20.1596 152.885 19.8035 152.26L0.269997 117.979C-0.496107 116.635 0.459347 114.952 1.98841 114.952H86.9359Z" fill="#000201"/>
<path d="M304.754 114.952C306.283 114.952 307.238 116.635 306.472 117.979L286.939 152.26C286.582 152.885 286.582 153.656 286.939 154.281L306.472 188.562C307.238 189.907 306.283 191.589 304.754 191.589H219.872C219.163 191.589 218.508 191.205 218.154 190.581L197.492 154.221C197.137 153.597 197.137 152.827 197.492 152.203L218.088 115.96C218.442 115.337 219.097 114.952 219.806 114.952H304.754Z" fill="#000201"/>
<path d="M106.992 1.0104C107.755 -0.335938 109.667 -0.337003 110.432 1.00843L152.798 75.5669C153.152 76.1909 153.152 76.9597 152.798 77.5836L132.137 113.944C131.782 114.568 131.127 114.952 130.418 114.952H89.2272C88.5183 114.952 87.8633 114.567 87.5087 113.944L45.1086 39.3271C44.3442 37.9817 45.301 36.3001 46.83 36.3019L85.8165 36.3492C86.5273 36.35 87.1841 35.9646 87.5388 35.3388L106.992 1.0104Z" fill="#000201"/>
<path d="M196.311 1.00843C197.075 -0.337003 198.987 -0.335938 199.75 1.0104L219.203 35.3388C219.558 35.9646 220.215 36.35 220.926 36.3492L259.912 36.3019C261.441 36.3001 262.398 37.9817 261.633 39.3271L219.233 113.944C218.879 114.567 218.224 114.952 217.515 114.952H176.324C175.615 114.952 174.96 114.568 174.605 113.944L153.944 77.5836C153.59 76.9597 153.59 76.1909 153.944 75.5669L196.311 1.00843Z" fill="#000201"/>
<path d="M522.612 201.443C522.612 217.995 515.455 232.533 501.14 245.058C486.825 257.36 467.814 263.622 444.105 263.846C425.093 264.07 405.299 260.715 384.722 253.781L380.025 194.062H394.116L409.213 240.026C423.304 246.959 436.948 250.203 450.144 249.755C463.788 249.532 474.412 245.729 482.016 238.348C489.845 230.967 493.759 222.244 493.759 212.179C493.759 206.364 492.752 201.108 490.739 196.411C488.726 191.714 486.378 188.023 483.694 185.339C481.234 182.432 477.208 179.412 471.616 176.281C466.248 173.15 461.886 170.913 458.531 169.571C455.176 168.229 449.697 166.104 442.092 163.196C434.711 160.289 428.784 157.828 424.311 155.815C419.837 153.802 414.693 151.007 408.878 147.428C403.286 143.626 398.813 139.823 395.458 136.021C392.326 132.219 389.642 127.41 387.406 121.594C385.169 115.555 384.051 108.957 384.051 101.8C384.051 86.3671 389.978 73.0589 401.832 61.8756C413.686 50.4687 431.021 44.6533 453.834 44.4297C466.36 44.206 479.78 45.4362 494.094 48.1202L511.54 43.4232V110.188H497.449L487.049 67.2436C474.747 61.8756 462.11 59.1916 449.137 59.1916C437.283 59.1916 428.113 62.323 421.627 68.5856C415.14 74.8483 411.897 82.4529 411.897 91.3996C411.897 95.6492 412.344 99.5634 413.239 103.142C414.134 106.497 416.035 109.74 418.943 112.871C421.85 116.003 423.975 118.351 425.317 119.917C426.659 121.483 430.126 123.607 435.718 126.291C441.309 128.975 444.664 130.541 445.783 130.988C446.901 131.436 451.039 133.113 458.196 136.021C459.985 136.692 461.327 137.251 462.222 137.698C469.827 140.606 475.977 143.178 480.674 145.415C485.371 147.428 490.739 150.336 496.778 154.138C502.817 157.94 507.403 161.854 510.534 165.88C513.889 169.683 516.685 174.715 518.921 180.978C521.382 187.017 522.612 193.839 522.612 201.443Z" fill="#000201"/>
<path d="M689.892 108.51L688.886 119.917L680.163 122.265C675.242 122.936 671.44 124.838 668.756 127.969C666.295 130.877 663.164 137.251 659.362 147.092L620.108 250.426L603.333 301.758C598.189 317.414 592.709 328.709 586.894 335.643C581.302 342.8 573.921 346.379 564.751 346.379C557.594 346.379 552.002 344.701 547.976 341.346C544.174 337.991 542.273 333.518 542.273 327.926C542.273 322.782 543.615 318.533 546.299 315.178C549.206 311.823 553.344 310.145 558.712 310.145C567.211 310.145 573.809 313.724 578.506 320.881C582.532 318.868 586.894 311.487 591.591 298.738L605.682 259.485V258.814L545.963 135.35C543.726 130.653 541.602 127.633 539.589 126.291C537.799 124.726 534.221 123.496 528.853 122.601L521.807 120.588L520.465 108.51H594.275L593.268 120.252L584.881 121.594C576.605 122.489 574.145 126.515 577.5 133.672L617.76 222.58L645.271 144.744C647.955 136.916 648.738 131.436 647.619 128.304C646.501 124.949 642.922 122.936 636.883 122.265L627.825 119.917L626.818 108.51H689.892Z" fill="#000201"/>
<path d="M810.667 225.599C804.404 237.901 795.905 247.407 785.169 254.117C774.656 260.603 762.802 263.846 749.606 263.846C729.923 263.846 713.707 256.689 700.958 242.374C688.433 227.836 682.171 209.943 682.171 188.694C682.171 164.315 689.999 144.073 705.655 127.969C721.312 111.641 739.988 103.478 761.684 103.478C776.222 103.478 787.741 106.721 796.24 113.207C804.963 119.47 809.325 126.962 809.325 135.685C809.325 142.172 807.423 146.869 803.621 149.776C799.819 152.46 795.457 153.802 790.537 153.802C784.05 153.802 779.018 150.671 775.439 144.408C771.861 138.146 770.966 130.877 772.755 122.601V121.93C767.835 118.351 761.684 116.562 754.303 116.562C741.777 116.562 731.377 121.706 723.101 131.995C715.049 142.284 711.023 156.039 711.023 173.261C711.023 192.273 715.944 208.153 725.785 220.902C735.627 233.428 748.04 239.69 763.026 239.69C779.801 239.69 793.444 233.763 803.957 221.909L810.667 225.599Z" fill="#000201"/>
<path d="M959.437 241.703C947.806 256.689 936.847 264.182 926.558 264.182C912.467 264.182 904.974 256.018 904.08 239.69H902.402C887.864 255.794 873.996 263.846 860.8 263.846C850.064 263.846 840.67 260.044 832.618 252.439C824.566 244.835 820.54 235.552 820.54 224.593C820.54 210.949 827.138 199.766 840.335 191.043C853.755 182.32 875.115 174.492 904.415 167.558V164.538C904.415 147.092 901.619 135.126 896.028 128.64C890.66 122.154 882.608 118.91 871.872 118.91C866.504 118.91 861.024 119.805 855.432 121.594C849.841 123.384 847.045 125.061 847.045 126.627C847.045 126.851 847.604 127.857 848.722 129.646C850.064 131.212 851.406 133.225 852.748 135.685C854.09 138.146 854.761 140.718 854.761 143.402C854.761 147.875 853.084 151.678 849.729 154.809C846.597 157.94 842.348 159.506 836.98 159.506C831.835 159.506 827.586 158.052 824.231 155.144C821.099 152.013 819.534 148.211 819.534 143.737C819.534 135.462 826.803 126.627 841.341 117.233C856.103 107.839 870.082 103.142 883.279 103.142C903.185 103.142 916.493 108.063 923.203 117.904C930.137 127.745 933.044 145.862 931.926 172.255L929.577 229.29C929.13 238.013 931.702 242.374 937.294 242.374C941.32 242.374 946.8 239.69 953.733 234.322L959.437 241.703ZM902.067 228.619L903.744 178.629C883.167 183.774 868.852 189.589 860.8 196.075C852.748 202.338 848.722 209.495 848.722 217.547C848.722 224.928 851.071 230.967 855.768 235.664C860.465 240.361 866.168 242.71 872.878 242.71C881.825 242.71 891.554 238.013 902.067 228.619Z" fill="#000201"/>
<path d="M1216.85 258.814H1144.71L1145.72 247.071L1154.44 246.065C1162.05 245.617 1165.85 243.493 1165.85 239.69V169.571C1165.85 140.942 1155.56 126.627 1134.98 126.627C1124.25 126.627 1112.84 131.771 1100.76 142.06C1100.99 144.073 1101.1 147.204 1101.1 151.454V239.69C1101.1 241.48 1101.99 242.822 1103.78 243.716C1105.57 244.611 1109.26 245.394 1114.85 246.065L1123.58 247.071L1124.58 258.814H1052.45L1053.46 247.071L1062.18 246.065C1069.79 245.617 1073.59 243.493 1073.59 239.69V169.571C1073.59 140.942 1063.3 126.627 1042.72 126.627C1032.88 126.627 1021.59 131.324 1008.84 140.718V240.026C1008.84 243.604 1013.09 245.617 1021.59 246.065L1032.99 247.071L1034 258.814H959.518L960.525 247.071L969.919 246.065C977.523 245.394 981.326 243.269 981.326 239.69V154.809C981.326 144.52 980.431 137.81 978.642 134.679C977.076 131.548 973.162 129.199 966.899 127.633L958.847 125.62L959.183 116.562L1008.84 103.478V127.298H1009.84C1027.96 111.418 1044.96 103.478 1060.84 103.478C1072.25 103.478 1081.42 106.944 1088.35 113.878C1092.82 118.351 1096.07 123.607 1098.08 129.646H1099.42C1118.43 112.201 1136.33 103.478 1153.1 103.478C1164.51 103.478 1173.68 106.944 1180.61 113.878C1189.11 122.377 1193.36 134.903 1193.36 151.454V239.69C1193.36 241.48 1194.26 242.822 1196.05 243.716C1197.83 244.611 1201.52 245.394 1207.12 246.065L1215.84 247.071L1216.85 258.814Z" fill="#000201"/>
<path d="M1374.71 179.3C1374.71 202.785 1367.1 222.803 1351.89 239.355C1336.68 255.682 1317.9 263.846 1295.53 263.846C1273.61 263.846 1255.94 256.241 1242.52 241.032C1229.1 225.823 1222.39 206.923 1222.39 184.333C1222.39 161.743 1230.11 142.619 1245.54 126.962C1260.97 111.306 1279.76 103.478 1301.9 103.478C1323.37 103.478 1340.82 110.747 1354.24 125.285C1367.88 139.6 1374.71 157.605 1374.71 179.3ZM1344.18 193.391C1344.18 163.644 1338.25 142.507 1326.39 129.982C1318.57 121.483 1308.84 117.233 1297.21 117.233C1284.46 117.233 1273.83 122.377 1265.33 132.666C1257.06 142.731 1252.92 156.486 1252.92 173.932C1252.92 203.456 1258.96 224.593 1271.04 237.342C1278.87 245.841 1288.59 250.091 1300.23 250.091C1312.53 250.091 1322.93 245.058 1331.43 234.993C1339.93 224.705 1344.18 210.837 1344.18 193.391Z" fill="#000201"/>
<path d="M1496.69 108.846C1500.26 112.201 1502.05 116.674 1502.05 122.265C1502.05 127.857 1500.49 132.442 1497.36 136.021C1494.45 139.376 1490.2 141.053 1484.61 141.053C1477.9 141.053 1472.19 137.363 1467.5 129.982C1453.63 138.034 1442.67 150 1434.62 165.88V240.026C1434.62 243.604 1438.87 245.617 1447.37 246.065L1460.45 247.071L1461.46 258.814H1385.3L1386.31 247.071L1395.7 246.065C1403.31 245.394 1407.11 243.269 1407.11 239.69V154.809C1407.11 144.52 1406.21 137.81 1404.42 134.679C1402.86 131.548 1398.94 129.199 1392.68 127.633L1384.63 125.62L1384.97 116.562L1434.62 103.478V146.421H1436.3C1445.91 130.765 1453.97 119.693 1460.45 113.207C1467.16 106.721 1474.32 103.478 1481.92 103.478C1488.19 103.478 1493.11 105.267 1496.69 108.846Z" fill="#000201"/>
<path d="M1633.49 225.599C1627.23 237.901 1618.73 247.407 1607.99 254.117C1597.48 260.603 1585.63 263.846 1572.43 263.846C1552.75 263.846 1536.53 256.689 1523.78 242.374C1511.26 227.836 1505 209.943 1505 188.694C1505 164.091 1512.49 143.737 1527.47 127.633C1542.68 111.529 1561.25 103.478 1583.17 103.478C1599.05 103.478 1611.68 108.063 1621.08 117.233C1630.7 126.403 1635.5 138.593 1635.5 153.802C1635.5 160.512 1634.83 166.551 1633.49 171.919L1533.85 170.577V174.268C1533.85 193.503 1538.77 209.272 1548.61 221.573C1558.45 233.651 1570.86 239.69 1585.85 239.69C1602.63 239.69 1616.27 233.763 1626.78 221.909L1633.49 225.599ZM1604.64 159.841C1605.53 146.421 1603.3 135.797 1597.93 127.969C1592.56 119.917 1585.18 115.891 1575.79 115.891C1566.17 115.891 1557.44 119.917 1549.62 127.969C1541.79 135.797 1536.87 146.421 1534.85 159.841H1604.64Z" fill="#000201"/>
<rect width="694" height="103" transform="translate(941.504 294.879)" fill="#000201"/>
<path d="M958.604 373.879L981.887 317.046H982.009L1005.29 373.879H997.898L991.421 357.562H972.171L965.632 373.879H958.604ZM974.493 351.757H989.098L984.759 340.879C984.23 339.494 983.721 338.129 983.232 336.784C982.743 335.44 982.254 333.831 981.765 331.957C981.276 333.831 980.808 335.44 980.359 336.784C979.911 338.088 979.402 339.453 978.832 340.879L974.493 351.757ZM1025.96 374.612C1022.7 374.612 1019.74 373.96 1017.1 372.657C1014.49 371.353 1012.41 369.764 1010.86 367.89L1012.88 359.457C1014.02 361.738 1015.73 363.796 1018.01 365.629C1020.29 367.462 1023.02 368.379 1026.2 368.379C1029.09 368.379 1031.48 367.462 1033.35 365.629C1035.27 363.796 1036.22 361.534 1036.22 358.846C1036.22 356.89 1035.76 355.281 1034.82 354.018C1033.88 352.755 1032.82 351.757 1031.64 351.023C1030.46 350.29 1029.52 349.76 1028.83 349.434L1022.11 346.012C1021.05 345.442 1019.72 344.647 1018.14 343.629C1016.59 342.61 1015.22 341.205 1014.04 339.412C1012.86 337.62 1012.27 335.297 1012.27 332.446C1012.27 329.675 1012.9 327.21 1014.16 325.051C1015.47 322.892 1017.26 321.201 1019.54 319.979C1021.86 318.757 1024.51 318.146 1027.49 318.146C1030.42 318.146 1033.01 318.675 1035.25 319.734C1037.49 320.753 1039.24 321.812 1040.5 322.912L1038.49 331.346C1037.47 329.634 1035.96 328.025 1033.96 326.518C1031.97 325.01 1029.71 324.257 1027.18 324.257C1024.74 324.257 1022.78 324.99 1021.31 326.457C1019.85 327.883 1019.11 329.655 1019.11 331.773C1019.11 333.403 1019.48 334.747 1020.21 335.807C1020.99 336.866 1021.84 337.701 1022.78 338.312C1023.76 338.923 1024.55 339.392 1025.16 339.718L1032.01 343.14C1032.82 343.547 1033.84 344.118 1035.06 344.851C1036.33 345.584 1037.57 346.562 1038.79 347.784C1040.01 348.966 1041.03 350.433 1041.85 352.184C1042.66 353.896 1043.07 355.973 1043.07 358.418C1043.07 361.555 1042.32 364.346 1040.81 366.79C1039.34 369.234 1037.32 371.149 1034.76 372.534C1032.19 373.92 1029.26 374.612 1025.96 374.612ZM1066.26 374.612C1063 374.612 1060.05 373.96 1057.4 372.657C1054.79 371.353 1052.72 369.764 1051.17 367.89L1053.18 359.457C1054.33 361.738 1056.04 363.796 1058.32 365.629C1060.6 367.462 1063.33 368.379 1066.51 368.379C1069.4 368.379 1071.78 367.462 1073.66 365.629C1075.57 363.796 1076.53 361.534 1076.53 358.846C1076.53 356.89 1076.06 355.281 1075.12 354.018C1074.19 352.755 1073.13 351.757 1071.95 351.023C1070.76 350.29 1069.83 349.76 1069.13 349.434L1062.41 346.012C1061.35 345.442 1060.03 344.647 1058.44 343.629C1056.89 342.61 1055.53 341.205 1054.35 339.412C1053.16 337.62 1052.57 335.297 1052.57 332.446C1052.57 329.675 1053.21 327.21 1054.47 325.051C1055.77 322.892 1057.56 321.201 1059.85 319.979C1062.17 318.757 1064.82 318.146 1067.79 318.146C1070.72 318.146 1073.31 318.675 1075.55 319.734C1077.79 320.753 1079.54 321.812 1080.81 322.912L1078.79 331.346C1077.77 329.634 1076.26 328.025 1074.27 326.518C1072.27 325.01 1070.01 324.257 1067.48 324.257C1065.04 324.257 1063.08 324.99 1061.62 326.457C1060.15 327.883 1059.42 329.655 1059.42 331.773C1059.42 333.403 1059.78 334.747 1060.52 335.807C1061.29 336.866 1062.15 337.701 1063.08 338.312C1064.06 338.923 1064.86 339.392 1065.47 339.718L1072.31 343.14C1073.13 343.547 1074.15 344.118 1075.37 344.851C1076.63 345.584 1077.87 346.562 1079.1 347.784C1080.32 348.966 1081.34 350.433 1082.15 352.184C1082.97 353.896 1083.37 355.973 1083.37 358.418C1083.37 361.555 1082.62 364.346 1081.11 366.79C1079.65 369.234 1077.63 371.149 1075.06 372.534C1072.5 373.92 1069.56 374.612 1066.26 374.612ZM1094.71 373.879V318.879H1121.85V325.112H1101.68V336.846H1117.57V343.079H1101.68V367.646H1121.85V373.879H1094.71ZM1128.45 325.112V318.879H1164.75V325.112H1150.08V373.879H1143.11V325.112H1128.45ZM1218.34 374.979C1214.35 374.979 1210.62 374.246 1207.16 372.779C1203.69 371.271 1200.64 369.214 1197.99 366.607C1195.38 363.959 1193.35 360.923 1191.88 357.501C1190.41 354.038 1189.68 350.331 1189.68 346.379C1189.68 342.427 1190.41 338.74 1191.88 335.318C1193.39 331.855 1195.44 328.82 1198.05 326.212C1200.7 323.564 1203.75 321.507 1207.22 320.04C1210.68 318.533 1214.41 317.779 1218.4 317.779C1222.31 317.779 1225.98 318.512 1229.4 319.979C1232.82 321.405 1235.84 323.381 1238.45 325.907L1236.43 334.34C1234.55 331.325 1232.03 328.921 1228.85 327.129C1225.71 325.296 1222.23 324.379 1218.4 324.379C1214.37 324.379 1210.72 325.377 1207.46 327.373C1204.24 329.329 1201.68 331.977 1199.76 335.318C1197.85 338.618 1196.89 342.305 1196.89 346.379C1196.89 350.371 1197.83 354.038 1199.7 357.379C1201.62 360.72 1204.18 363.388 1207.4 365.384C1210.66 367.381 1214.31 368.379 1218.34 368.379C1220.62 368.379 1222.78 368.114 1224.82 367.584C1226.9 367.014 1228.79 366.22 1230.5 365.201V350.779H1215.35V344.546H1237.22V368.746C1234.74 370.823 1231.85 372.392 1228.55 373.451C1225.29 374.47 1221.88 374.979 1218.34 374.979ZM1251.12 373.879V318.879H1278.25V325.112H1258.08V336.846H1273.97V343.079H1258.08V367.646H1278.25V373.879H1251.12ZM1334.72 375.712L1296.22 334.462V373.879H1289.62V317.046L1328.12 358.296V318.879H1334.72V375.712ZM1350.12 373.879V318.879H1377.25V325.112H1357.08V336.846H1372.97V343.079H1357.08V367.646H1377.25V373.879H1350.12ZM1388.8 373.879V318.879H1402.61C1406.08 318.879 1409.05 319.571 1411.53 320.957C1414.02 322.342 1415.93 324.175 1417.28 326.457C1418.66 328.697 1419.36 331.162 1419.36 333.851C1419.36 336.866 1418.5 339.575 1416.79 341.979C1415.08 344.383 1412.74 346.155 1409.76 347.296L1428.22 373.879H1420.09L1402.61 348.579H1395.77V373.879H1388.8ZM1395.77 342.712H1402.61C1404.98 342.712 1406.89 342.284 1408.36 341.429C1409.86 340.533 1410.96 339.412 1411.66 338.068C1412.39 336.683 1412.76 335.277 1412.76 333.851C1412.76 331.284 1411.82 329.186 1409.95 327.557C1408.11 325.927 1405.67 325.112 1402.61 325.112H1395.77V342.712ZM1429.71 373.879L1453 317.046H1453.12L1476.4 373.879H1469.01L1462.53 357.562H1443.28L1436.74 373.879H1429.71ZM1445.6 351.757H1460.21L1455.87 340.879C1455.34 339.494 1454.83 338.129 1454.34 336.784C1453.85 335.44 1453.36 333.831 1452.87 331.957C1452.39 333.831 1451.92 335.44 1451.47 336.784C1451.02 338.088 1450.51 339.453 1449.94 340.879L1445.6 351.757ZM1473.14 325.112V318.879H1509.44V325.112H1494.77V373.879H1487.81V325.112H1473.14ZM1539.29 374.979C1535.34 374.979 1531.61 374.246 1528.11 372.779C1524.64 371.271 1521.59 369.214 1518.94 366.607C1516.33 363.999 1514.28 360.964 1512.77 357.501C1511.3 354.038 1510.57 350.331 1510.57 346.379C1510.57 342.427 1511.3 338.72 1512.77 335.257C1514.28 331.794 1516.33 328.759 1518.94 326.151C1521.59 323.544 1524.64 321.507 1528.11 320.04C1531.61 318.533 1535.34 317.779 1539.29 317.779C1543.28 317.779 1547.01 318.533 1550.47 320.04C1553.94 321.507 1556.97 323.544 1559.58 326.151C1562.23 328.759 1564.29 331.794 1565.75 335.257C1567.26 338.72 1568.01 342.427 1568.01 346.379C1568.01 350.331 1567.26 354.038 1565.75 357.501C1564.29 360.964 1562.23 363.999 1559.58 366.607C1556.97 369.214 1553.94 371.271 1550.47 372.779C1547.01 374.246 1543.28 374.979 1539.29 374.979ZM1539.29 368.379C1543.32 368.379 1546.97 367.401 1550.23 365.446C1553.49 363.449 1556.06 360.781 1557.93 357.44C1559.84 354.099 1560.8 350.412 1560.8 346.379C1560.8 342.305 1559.84 338.618 1557.93 335.318C1556.06 331.977 1553.49 329.329 1550.23 327.373C1546.97 325.377 1543.32 324.379 1539.29 324.379C1535.26 324.379 1531.61 325.377 1528.35 327.373C1525.13 329.329 1522.57 331.977 1520.65 335.318C1518.74 338.618 1517.78 342.305 1517.78 346.379C1517.78 350.412 1518.74 354.099 1520.65 357.44C1522.57 360.781 1525.13 363.449 1528.35 365.446C1531.61 367.401 1535.26 368.379 1539.29 368.379ZM1579.58 373.879V318.879H1593.39C1596.86 318.879 1599.83 319.571 1602.32 320.957C1604.8 322.342 1606.72 324.175 1608.06 326.457C1609.45 328.697 1610.14 331.162 1610.14 333.851C1610.14 336.866 1609.28 339.575 1607.57 341.979C1605.86 344.383 1603.52 346.155 1600.54 347.296L1619 373.879H1610.87L1593.39 348.579H1586.55V373.879H1579.58ZM1586.55 342.712H1593.39C1595.76 342.712 1597.67 342.284 1599.14 341.429C1600.65 340.533 1601.75 339.412 1602.44 338.068C1603.17 336.683 1603.54 335.277 1603.54 333.851C1603.54 331.284 1602.6 329.186 1600.73 327.557C1598.89 325.927 1596.45 325.112 1593.39 325.112H1586.55V342.712Z" fill="#D9D9D9"/>
</svg>
