<svg preserveAspectRatio="none" width="100%" height="100%" overflow="visible" style="display: block;" viewBox="0 0 32 32" fill="none" xmlns="http://www.w3.org/2000/svg">
<g id="DownloadSimple" clip-path="url(#clip0_815_2189)">
<g id="Vector">
</g>
<path id="Vector_2" d="M28 18V26C28 26.2652 27.8946 26.5196 27.7071 26.7071C27.5196 26.8946 27.2652 27 27 27H5C4.73478 27 4.48043 26.8946 4.29289 26.7071C4.10536 26.5196 4 26.2652 4 26V18C4 17.7348 4.10536 17.4804 4.29289 17.2929C4.48043 17.1054 4.73478 17 5 17C5.26522 17 5.51957 17.1054 5.70711 17.2929C5.89464 17.4804 6 17.7348 6 18V25H26V18C26 17.7348 26.1054 17.4804 26.2929 17.2929C26.4804 17.1054 26.7348 17 27 17C27.2652 17 27.5196 17.1054 27.7071 17.2929C27.8946 17.4804 28 17.7348 28 18ZM15.2925 18.7075C15.3854 18.8005 15.4957 18.8742 15.6171 18.9246C15.7385 18.9749 15.8686 19.0008 16 19.0008C16.1314 19.0008 16.2615 18.9749 16.3829 18.9246C16.5043 18.8742 16.6146 18.8005 16.7075 18.7075L21.7075 13.7075C21.8475 13.5676 21.9429 13.3894 21.9815 13.1953C22.0202 13.0012 22.0004 12.8 21.9246 12.6172C21.8489 12.4344 21.7206 12.2782 21.556 12.1683C21.3914 12.0584 21.1979 11.9998 21 12H17V4C17 3.73478 16.8946 3.48043 16.7071 3.29289C16.5196 3.10536 16.2652 3 16 3C15.7348 3 15.4804 3.10536 15.2929 3.29289C15.1054 3.48043 15 3.73478 15 4V12H11C10.8021 11.9998 10.6086 12.0584 10.444 12.1683C10.2794 12.2782 10.1511 12.4344 10.0754 12.6172C9.99962 12.8 9.97982 13.0012 10.0185 13.1953C10.0571 13.3894 10.1525 13.5676 10.2925 13.7075L15.2925 18.7075Z" fill="var(--fill-0, #C3C3C3)"/>
</g>
<defs>
<clipPath id="clip0_815_2189">
<rect width="32" height="32" fill="white"/>
</clipPath>
</defs>
</svg>
