<svg preserveAspectRatio="none" width="100%" height="100%" overflow="visible" style="display: block;" viewBox="0 0 32 32" fill="none" xmlns="http://www.w3.org/2000/svg">
<g id="Pause" clip-path="url(#clip0_815_2193)">
<g id="Vector">
</g>
<path id="Vector_2" d="M27.9167 5.16667V26.8333C27.9167 27.408 27.6884 27.9591 27.2821 28.3654C26.8757 28.7717 26.3246 29 25.75 29H20.3333C19.7587 29 19.2076 28.7717 18.8013 28.3654C18.3949 27.9591 18.1667 27.408 18.1667 26.8333V5.16667C18.1667 4.59203 18.3949 4.04093 18.8013 3.6346C19.2076 3.22827 19.7587 3 20.3333 3H25.75C26.3246 3 26.8757 3.22827 27.2821 3.6346C27.6884 4.04093 27.9167 4.59203 27.9167 5.16667ZM11.6667 3H6.25C5.67536 3 5.12426 3.22827 4.71793 3.6346C4.31161 4.04093 4.08333 4.59203 4.08333 5.16667V26.8333C4.08333 27.408 4.31161 27.9591 4.71793 28.3654C5.12426 28.7717 5.67536 29 6.25 29H11.6667C12.2413 29 12.7924 28.7717 13.1987 28.3654C13.6051 27.9591 13.8333 27.408 13.8333 26.8333V5.16667C13.8333 4.59203 13.6051 4.04093 13.1987 3.6346C12.7924 3.22827 12.2413 3 11.6667 3Z" fill="var(--fill-0, #C3C3C3)"/>
</g>
<defs>
<clipPath id="clip0_815_2193">
<rect width="32" height="32" fill="white"/>
</clipPath>
</defs>
</svg>
